<?xml version="1.0" standalone="no"?>
<!DOCTYPE svg PUBLIC "-//W3C//DTD SVG 1.1//EN" "http://www.w3.org/Graphics/SVG/1.1/DTD/svg11.dtd" >
<svg xmlns="http://www.w3.org/2000/svg" xmlns:xlink="http://www.w3.org/1999/xlink" version="1.1">
<metadata>
Created by FontForge 20201107 at Fri Dec  3 17:13:28 2010
 By 
Copyright 1990-1992 as an unpublished work by Bitstream Inc.  All rights reserved.  Confidential.
</metadata>
<defs>
<font id="Swiss721BT-Black" horiz-adv-x="500" >
  <font-face 
    font-family="Swiss 721"
    font-weight="900"
    font-stretch="normal"
    units-per-em="1000"
    panose-1="2 0 9 3 6 0 0 2 0 4"
    ascent="800"
    descent="-200"
    x-height="531"
    cap-height="719"
    bbox="-167 -237 1478 963"
    underline-thickness="145"
    underline-position="-119"
    unicode-range="U+0020-FB02"
  />
<missing-glyph horiz-adv-x="329" 
 />
    <glyph glyph-name="fi" unicode="fi" horiz-adv-x="704" 
d="M433 737h213v-152h-213v152zM77 411h-66v120h66v33q0 90 44 131.5t138 41.5h118v-133q-6 0 -11.5 0.5t-10.5 0.5q-38 0 -53.5 -12.5t-15.5 -45.5q0 -4 0.5 -7.5t0.5 -8.5h90v-120h-90v-411h-210v411zM433 531h213v-531h-213v531z" />
    <glyph glyph-name="fl" unicode="fl" horiz-adv-x="704" 
d="M77 411h-66v120h66v33q0 90 44 131.5t138 41.5h118v-133q-6 0 -11.5 0.5t-10.5 0.5q-38 0 -53.5 -12.5t-15.5 -45.5q0 -4 0.5 -7.5t0.5 -8.5h90v-120h-90v-411h-210v411zM436 719h213v-719h-213v719z" />
    <glyph glyph-name=".notdef" horiz-adv-x="329" 
 />
    <glyph glyph-name=".null" horiz-adv-x="0" 
 />
    <glyph glyph-name="nonmarkingreturn" horiz-adv-x="329" 
 />
    <glyph glyph-name="space" unicode=" " horiz-adv-x="329" 
 />
    <glyph glyph-name="space" unicode="&#xa0;" horiz-adv-x="329" 
 />
    <glyph glyph-name="exclam" unicode="!" horiz-adv-x="375" 
d="M80 539v180h215v-180l-49 -282h-117zM82 198h211v-198h-211v198z" />
    <glyph glyph-name="quotedbl" unicode="&#x22;" horiz-adv-x="370" 
d="M337 428h-127v275h127v-275zM159 428h-126v275h126v-275z" />
    <glyph glyph-name="numbersign" unicode="#" horiz-adv-x="769" 
d="M345 407l-38 -104h117l38 104h-117zM395 539h111l63 179h141l-63 -179h125l-49 -132h-123l-37 -104h126l-49 -132h-124l-64 -179h-141l64 179h-111l-64 -179h-141l64 179h-126l49 132h124l36 104h-126l48 132h126l63 179h141z" />
    <glyph glyph-name="dollar" unicode="$" horiz-adv-x="657" 
d="M301 587h-4q-85 0 -85 -65q0 -27 21.5 -42t67.5 -26v133zM289 -11q-126 5 -194 66.5t-70 172.5h180q3 -54 21 -79t60 -27v161q-128 28 -189.5 78.5t-61.5 137.5q0 46 18 84t51.5 66t82 44t109.5 17v63h78v-62q115 -3 178.5 -59t67.5 -156h-171q-5 87 -77 89v-148
q67 -16 116 -36t80.5 -47t47 -62.5t15.5 -82.5q0 -206 -267 -221v-82h-75v83zM359 122q95 0 95 66q0 31 -22.5 47t-72.5 30v-143z" />
    <glyph glyph-name="percent" unicode="%" horiz-adv-x="1019" 
d="M696 197q0 -35 23.5 -59t58.5 -24t59 24.5t24 58.5q0 35 -24 59t-59 24t-58.5 -24t-23.5 -59zM562 197q0 46 16.5 85.5t45.5 68.5t68.5 46t85.5 17q44 0 83.5 -17t69 -46.5t47 -69t17.5 -84.5t-17 -84.5t-46.5 -69t-69 -46.5t-84.5 -17q-46 0 -85.5 16.5t-68.5 46
t-45.5 69t-16.5 85.5zM660 721h99l-401 -741h-99zM157 504q0 -35 24 -59t59 -24t58.5 24.5t23.5 58.5q0 35 -23.5 59t-58.5 24t-59 -24t-24 -59zM23 504q0 46 16.5 85.5t46 68.5t69 46t85.5 17q44 0 83.5 -17t69 -46.5t46.5 -69t17 -84.5t-17 -84.5t-46.5 -69t-68.5 -46.5
t-84 -17q-46 0 -85.5 16.5t-69 46t-46 69t-16.5 85.5z" />
    <glyph glyph-name="ampersand" unicode="&#x26;" horiz-adv-x="845" 
d="M378 468q40 14 59.5 33.5t19.5 48.5q0 28 -20 45t-53 17t-50 -16t-17 -43q0 -25 15 -45t46 -40zM320 290q-73 -34 -73 -89q0 -27 19 -43.5t53 -16.5q55 0 105 41zM540 62q-55 -42 -116.5 -62t-133.5 -20q-118 0 -180.5 57.5t-62.5 157.5q0 75 37.5 127.5t116.5 91.5
q-66 60 -66 137q0 88 62.5 138t180.5 50q116 0 181 -55t65 -149q0 -116 -119 -181l61 -64q15 13 27.5 28.5t23.5 34.5h189q-23 -51 -54.5 -96t-71.5 -85l166 -172h-246z" />
    <glyph glyph-name="quotesingle" unicode="'" horiz-adv-x="192" 
d="M159 428h-126v275h126v-275z" />
    <glyph glyph-name="parenleft" unicode="(" horiz-adv-x="412" 
d="M379 718q-45 -117 -68 -226.5t-23 -220.5t23 -221.5t68 -226.5h-175q-108 246 -108 448q0 103 28 212.5t80 234.5h175z" />
    <glyph glyph-name="parenright" unicode=")" horiz-adv-x="412" 
d="M212 719q54 -124 81 -235t27 -213t-27 -213t-81 -235h-175q45 116 68 226.5t23 221.5t-23 221t-68 227h175z" />
    <glyph glyph-name="asterisk" unicode="*" 
d="M165 288l-99 72l92 116l-132 37l38 116l127 -45v135h116v-135l127 44l38 -116l-133 -35l93 -117l-100 -70l-83 120z" />
    <glyph glyph-name="plus" unicode="+" horiz-adv-x="833" 
d="M485 365h224v-133h-224v-232h-137v232h-224v133h224v231h137v-231z" />
    <glyph glyph-name="comma" unicode="," horiz-adv-x="329" 
d="M58 -86q51 8 74.5 29.5t23.5 63.5h-98v209h212v-212q0 -79 -54.5 -126.5t-157.5 -56.5v93z" />
    <glyph glyph-name="hyphen" unicode="-" horiz-adv-x="350" 
d="M49 363h252v-188h-252v188z" />
    <glyph glyph-name="hyphen" unicode="&#xad;" horiz-adv-x="350" 
d="M49 363h252v-188h-252v188z" />
    <glyph glyph-name="period" unicode="." horiz-adv-x="329" 
d="M58 216h212v-216h-212v216z" />
    <glyph glyph-name="slash" unicode="/" horiz-adv-x="338" 
d="M-4 -93l266 831h90l-266 -831h-90z" />
    <glyph glyph-name="zero" unicode="0" horiz-adv-x="657" 
d="M424 351q0 107 -20 157.5t-76 50.5t-76 -51t-20 -157q0 -107 20 -157t76 -50t76 50t20 157zM21 351q0 184 77.5 277t229.5 93t230.5 -93t78.5 -277t-78.5 -277.5t-230.5 -93.5t-229.5 94t-77.5 277z" />
    <glyph glyph-name="one" unicode="1" horiz-adv-x="657" 
d="M259 408h-158v146q48 1 83.5 9t60 25.5t39.5 45t21 67.5h159v-701h-205v408z" />
    <glyph glyph-name="two" unicode="2" horiz-adv-x="657" 
d="M27 0q0 5 -0.5 8.5t-0.5 8.5q0 79 48.5 145t145.5 135q41 29 76 50.5t60 40.5t39 39t14 47q0 42 -22.5 65.5t-62.5 23.5q-98 0 -98 -127v-12h-186q0 5 -0.5 10t-0.5 10q0 65 20.5 116.5t58.5 87t93 54.5t124 19q64 0 115.5 -16.5t87.5 -46.5t55.5 -72t19.5 -92
q0 -40 -9.5 -70t-28.5 -54t-46.5 -45t-64.5 -43q-37 -23 -79.5 -47.5t-87.5 -62.5h314v-172h-584z" />
    <glyph glyph-name="three" unicode="3" horiz-adv-x="657" 
d="M225 248q3 -103 99 -103q88 0 88 82q0 42 -27.5 59.5t-86.5 17.5h-17v121h14q112 0 112 72q0 65 -78 65q-86 0 -90 -77h-189q1 53 21.5 96.5t57.5 74.5t89 48t116 17q62 0 111.5 -15t84 -42t53 -64.5t18.5 -82.5q0 -95 -77 -137q95 -37 95 -157q0 -113 -78 -178t-223 -65
q-66 0 -118.5 18t-89.5 51t-57 80t-20 105v14h192z" />
    <glyph glyph-name="four" unicode="4" horiz-adv-x="657" 
d="M352 305v205l-169 -205h169zM347 146h-322v170l327 385h195v-396h83v-159h-83v-146h-200v146z" />
    <glyph glyph-name="five" unicode="5" horiz-adv-x="657" 
d="M224 206q24 -64 94 -64q46 0 72 25t26 69q0 45 -25.5 72t-67.5 27q-51 0 -82 -39l-191 16l69 389h446v-169h-304l-20 -100q32 18 67 25.5t77 7.5q52 0 95.5 -16t75 -45t48.5 -70.5t17 -92.5q0 -122 -79.5 -191.5t-225.5 -69.5q-121 0 -197.5 54.5t-97.5 151.5z" />
    <glyph glyph-name="six" unicode="6" horiz-adv-x="657" 
d="M242 234q0 -45 25 -70t69 -25q43 0 67.5 25.5t24.5 68.5q0 45 -24.5 70t-66.5 25q-43 0 -69 -25t-26 -69zM236 412q26 24 65 37.5t91 13.5q55 0 100 -16.5t76.5 -46.5t48.5 -72.5t17 -94.5q0 -58 -19.5 -104.5t-57 -79.5t-91 -50.5t-121.5 -17.5q-158 0 -237 92.5
t-79 275.5q0 88 21.5 157.5t62.5 116.5t99.5 72t132.5 25q113 0 185 -51.5t92 -143.5l-194 -7q-17 57 -81 57q-103 0 -111 -163z" />
    <glyph glyph-name="seven" unicode="7" horiz-adv-x="657" 
d="M155 0q11 153 68 281t164 247h-342v173h561v-153q-102 -103 -154 -238t-60 -310h-237z" />
    <glyph glyph-name="eight" unicode="8" horiz-adv-x="657" 
d="M231 220q0 -41 24.5 -63.5t71.5 -22.5t71.5 22.5t24.5 63.5q0 42 -25.5 66t-70.5 24t-70.5 -23.5t-25.5 -66.5zM237 502q0 -36 23 -56.5t67 -20.5t66.5 20.5t22.5 56.5q0 31 -24 52t-65 21t-65.5 -21t-24.5 -52zM138 371q-91 47 -91 144q0 46 18.5 84t54.5 65t88 41.5
t119 14.5t119 -14.5t88 -41.5t54.5 -65t18.5 -84q0 -97 -91 -144q58 -23 85.5 -63t27.5 -100q0 -107 -77.5 -166.5t-224.5 -59.5t-224.5 59.5t-77.5 166.5q0 60 27.5 100t85.5 63z" />
    <glyph glyph-name="nine" unicode="9" horiz-adv-x="657" 
d="M410 468q0 45 -24.5 70t-68.5 25q-43 0 -67.5 -25.5t-24.5 -68.5q0 -45 24.5 -70t66.5 -25q43 0 68.5 25t25.5 69zM417 290q-26 -24 -65 -37.5t-91 -13.5q-55 0 -100 16t-76.5 46t-48.5 72.5t-17 95.5q0 58 19.5 104.5t57 79t91 50t121.5 17.5q158 0 237.5 -92t79.5 -275
q0 -89 -22 -158t-63 -116t-99.5 -72t-132.5 -25q-113 0 -184.5 51.5t-91.5 143.5l192 7q18 -57 82 -57q54 0 80.5 41t30.5 122z" />
    <glyph glyph-name="colon" unicode=":" horiz-adv-x="352" 
d="M70 531h212v-215h-212v215zM70 216h212v-216h-212v216z" />
    <glyph glyph-name="semicolon" unicode=";" horiz-adv-x="352" 
d="M70 531h212v-215h-212v215zM70 -86q51 8 74.5 29.5t23.5 63.5h-98v209h212v-212q0 -79 -54.5 -126.5t-157.5 -56.5v93z" />
    <glyph glyph-name="semicolon" unicode="&#x37e;" horiz-adv-x="352" 
d="M70 531h212v-215h-212v215zM70 -86q51 8 74.5 29.5t23.5 63.5h-98v209h212v-212q0 -79 -54.5 -126.5t-157.5 -56.5v93z" />
    <glyph glyph-name="less" unicode="&#x3c;" horiz-adv-x="833" 
d="M313 298l391 -160v-146l-575 238v137l575 238v-147z" />
    <glyph glyph-name="equal" unicode="=" horiz-adv-x="833" 
d="M709 117h-585v133h585v-133zM709 347h-585v133h585v-133z" />
    <glyph glyph-name="greater" unicode="&#x3e;" horiz-adv-x="833" 
d="M704 230l-575 -238v146l391 160l-391 160v147l575 -238v-137z" />
    <glyph glyph-name="question" unicode="?" horiz-adv-x="627" 
d="M214 256q-1 10 -1 19v18q0 54 15.5 88t51.5 55q20 12 39 19.5t33.5 16t23.5 20t9 30.5q0 26 -18 43.5t-51 17.5q-36 0 -55.5 -21t-19.5 -62v-3h-210q6 116 80 178.5t208 62.5q64 0 115.5 -15.5t87.5 -43.5t55 -66.5t19 -83.5q0 -67 -37 -108q-23 -26 -54.5 -41.5
t-63.5 -34.5q-12 -7 -20 -13t-13 -14t-7 -18t-2 -25q0 -5 0.5 -9.5t0.5 -9.5h-186zM201 198h210v-198h-210v198z" />
    <glyph glyph-name="at" unicode="@" horiz-adv-x="1000" 
d="M630 485h118l-76 -306q-2 -10 -2 -15q0 -24 23 -24q29 0 58 18t52.5 49t38 73t14.5 91q0 57 -21.5 104t-62 81t-98 53t-129.5 19q-71 0 -131 -17.5t-109 -51.5q-75 -53 -116 -131t-41 -171q0 -72 25 -130t72 -99t113 -63t149 -22q157 0 286 91l56 -78
q-80 -60 -166.5 -88.5t-186.5 -28.5q-94 0 -174.5 26.5t-142.5 76.5q-145 116 -145 312q0 87 27 162.5t80 138.5q73 87 176 133t226 46q95 0 173 -26.5t133.5 -74.5t86 -114.5t30.5 -145.5q0 -85 -33 -154.5t-96 -117.5q-35 -28 -76 -41.5t-84 -13.5q-105 0 -114 75
q-29 -38 -62 -56t-79 -18q-168 0 -168 171q0 61 19 112.5t52 89t77.5 58.5t95.5 21q74 0 108 -54zM573 336q-4 34 -21 52t-44 18q-23 0 -44.5 -15.5t-37.5 -41.5t-25.5 -60.5t-9.5 -73.5q0 -36 15.5 -55t41.5 -19q35 0 63 26t39 74z" />
    <glyph glyph-name="A" unicode="A" horiz-adv-x="735" 
d="M439 246l-72 249l-73 -249h145zM250 719h234l253 -719h-229l-27 95h-229l-28 -95h-227z" />
    <glyph glyph-name="B" unicode="B" horiz-adv-x="758" 
d="M399 168q51 0 74.5 14.5t23.5 52.5t-24.5 52t-75.5 14h-105v-133h107zM387 432q45 0 66 13t21 49q0 21 -6.5 33.5t-21 19t-37 8t-53.5 1.5h-64v-124h95zM68 719h295q66 0 118.5 -3t94.5 -18q55 -20 84 -63t29 -106q0 -99 -87 -145q58 -21 85 -62t27 -106t-26.5 -111.5
t-77.5 -72.5q-48 -24 -103 -28t-121 -4h-318v719z" />
    <glyph glyph-name="C" unicode="C" horiz-adv-x="782" 
d="M753 279q-10 -143 -99.5 -221t-245.5 -78q-87 0 -155.5 26.5t-116.5 75.5t-73.5 119t-25.5 158t25.5 158.5t73 119.5t115.5 75t152 26q158 0 246.5 -75.5t99.5 -215.5h-221q-11 111 -122 111q-136 0 -136 -199t142 -199q54 0 85.5 30.5t36.5 88.5h219z" />
    <glyph glyph-name="D" unicode="D" horiz-adv-x="784" 
d="M361 182q43 0 72 9t47 29.5t26 54.5t8 84q0 49 -8 83t-26 55t-46.5 30.5t-69.5 9.5h-65v-355h62zM68 719h279q77 0 138 -6.5t111 -34.5q150 -87 150 -319q0 -247 -184 -329q-46 -21 -109.5 -25.5t-148.5 -4.5h-236v719z" />
    <glyph glyph-name="E" unicode="E" horiz-adv-x="697" 
d="M68 719h575v-172h-344v-96h291v-165h-291v-111h358v-175h-589v719z" />
    <glyph glyph-name="F" unicode="F" horiz-adv-x="632" 
d="M68 719h544v-181h-313v-111h249v-174h-249v-253h-231v719z" />
    <glyph glyph-name="G" unicode="G" horiz-adv-x="815" 
d="M592 62q-78 -82 -223 -82q-76 0 -137.5 25.5t-104.5 74.5t-66.5 119.5t-23.5 159.5q0 90 25.5 160.5t74 119t118.5 74t159 25.5q143 0 228 -70t101 -197h-219q-27 88 -116 88q-138 0 -138 -212q0 -194 140 -194q52 0 87 24t43 63h-104v154h316v-394h-149z" />
    <glyph glyph-name="H" unicode="H" horiz-adv-x="813" 
d="M68 719h231v-244h215v244h231v-719h-231v279h-215v-279h-231v719z" />
    <glyph glyph-name="I" unicode="I" horiz-adv-x="380" 
d="M72 719h235v-719h-235v719z" />
    <glyph glyph-name="J" unicode="J" horiz-adv-x="641" 
d="M225 310v-67q0 -42 12.5 -61.5t46.5 -19.5q38 0 49.5 23t11.5 74v460h231v-484q0 -125 -72 -190t-212 -65q-273 0 -273 279q0 12 0.5 24.5t1.5 26.5h204z" />
    <glyph glyph-name="K" unicode="K" horiz-adv-x="780" 
d="M68 719h229v-238l207 238h268l-257 -265l290 -454h-275l-176 288l-57 -59v-229h-229v719z" />
    <glyph glyph-name="L" unicode="L" horiz-adv-x="639" 
d="M68 719h231v-528h314v-191h-545v719z" />
    <glyph glyph-name="M" unicode="M" horiz-adv-x="947" 
d="M68 0v719h281l100 -359q3 -14 24 -105q8 39 13.5 65t9.5 39l102 360h281v-719h-209l2 354v45.5t1 80.5q-10 -46 -17.5 -78t-12.5 -50l-89 -352h-161l-90 344q-8 29 -14.5 63t-14.5 73q3 -93 3 -133v-347h-209z" />
    <glyph glyph-name="N" unicode="N" horiz-adv-x="814" 
d="M68 719h219l202 -334q18 -29 42 -103q-4 23 -5 47.5t-1 50.5v339h220v-719h-220l-202 332q-8 14 -19 39.5t-23 63.5q5 -27 5.5 -51.5t0.5 -46.5v-337h-219v719z" />
    <glyph glyph-name="O" unicode="O" horiz-adv-x="822" 
d="M270 359q0 -102 33.5 -150t107.5 -48t107 48t33 150t-33 150t-107 48t-107.5 -48t-33.5 -150zM37 359q0 88 26 158t74.5 119t117.5 75.5t156 26.5t156 -26.5t117 -75.5t74 -119t26 -158t-26 -158t-74 -119t-117 -75.5t-156 -26.5t-156 26.5t-117.5 75.5t-74.5 119
t-26 158z" />
    <glyph glyph-name="P" unicode="P" horiz-adv-x="738" 
d="M373 396q31 0 53.5 2.5t37.5 10.5t22.5 22t7.5 38q0 25 -7.5 39.5t-22.5 22t-38 10t-53 2.5h-74v-147h74zM68 719h296q84 0 145 -9.5t106 -38.5q99 -66 99 -202q0 -121 -70.5 -185t-206.5 -64h-138v-220h-231v719z" />
    <glyph glyph-name="Q" unicode="Q" horiz-adv-x="822" 
d="M585 19q-35 -19 -80 -29t-99 -10q-84 0 -152 27t-116.5 76t-74.5 118t-26 154q0 88 26 159t74 121t117.5 76.5t156.5 26.5t156 -26.5t117 -75.5t74 -119t26 -158q0 -73 -20.5 -135t-62.5 -116l83 -85l-106 -101zM365 251l99 95l82 -86q11 46 11 88q0 111 -33 164t-113 53
q-77 0 -112 -50t-35 -156t35 -156t113 -50q22 0 42 6z" />
    <glyph glyph-name="R" unicode="R" horiz-adv-x="763" 
d="M401 410q50 0 73.5 13t23.5 54q0 43 -25.5 55.5t-77.5 12.5h-99v-135h105zM68 719h344q77 0 133.5 -10.5t93.5 -35t55 -64t18 -97.5q0 -66 -28 -109t-88 -69q60 -13 87.5 -49.5t29.5 -110.5l4 -100q1 -23 3.5 -34t17.5 -13v-27h-233q-13 53 -13 75v72q0 57 -22 79t-76 22
h-98v-248h-228v719z" />
    <glyph glyph-name="S" unicode="S" horiz-adv-x="713" 
d="M259 224q9 -40 33.5 -56.5t72.5 -16.5q42 0 64.5 14.5t22.5 37.5q0 17 -8 27t-23.5 17t-39.5 13l-56 14q-75 20 -123.5 36.5t-71.5 32.5q-83 59 -83 166q0 52 20 94.5t59 72.5t95 46t128 16q140 0 219 -58.5t89 -167.5h-219q-10 63 -93 63q-73 0 -73 -49q0 -14 7 -23
t20.5 -16t33.5 -12t46 -12q67 -17 119 -31t87 -37q48 -32 70 -72t22 -96q0 -118 -82 -182.5t-240 -64.5q-146 0 -228 64.5t-93 179.5h225z" />
    <glyph glyph-name="T" unicode="T" horiz-adv-x="664" 
d="M219 530h-207v189h641v-189h-203v-530h-231v530z" />
    <glyph glyph-name="U" unicode="U" horiz-adv-x="815" 
d="M297 719v-443q0 -60 24 -87t87 -27q62 0 85.5 27.5t23.5 86.5v443h231v-461q0 -136 -86 -207t-254 -71t-255 71t-87 207v461h231z" />
    <glyph glyph-name="V" unicode="V" horiz-adv-x="733" 
d="M245 719l121 -464l130 464h227l-242 -719h-230l-242 719h236z" />
    <glyph glyph-name="W" unicode="W" horiz-adv-x="985" 
d="M9 719h225l78 -464l91 464h191l87 -464l76 464h219l-171 -719h-229l-82 431l-79 -431h-233z" />
    <glyph glyph-name="X" unicode="X" horiz-adv-x="731" 
d="M240 374l-225 345h260l96 -182l105 182h254l-233 -345l241 -374h-261l-109 195l-109 -195h-266z" />
    <glyph glyph-name="Y" unicode="Y" horiz-adv-x="736" 
d="M256 266l-265 453h256l124 -245l125 245h249l-258 -453v-266h-231v266z" />
    <glyph glyph-name="Z" unicode="Z" horiz-adv-x="705" 
d="M34 173l333 360h-322v186h606v-171l-337 -363h355v-185h-635v173z" />
    <glyph glyph-name="bracketleft" unicode="[" horiz-adv-x="431" 
d="M420 719v-152h-129v-595h129v-147h-316v894h316z" />
    <glyph glyph-name="backslash" unicode="\" horiz-adv-x="338" 
d="M-4 738h90l266 -831h-90z" />
    <glyph glyph-name="bracketright" unicode="]" horiz-adv-x="431" 
d="M326 -175h-316v147h129v595h-129v152h316v-894z" />
    <glyph glyph-name="asciicircum" unicode="^" horiz-adv-x="1000" 
d="M798 438h-148l-150 151l-151 -151h-148l216 276h165z" />
    <glyph glyph-name="underscore" unicode="_" 
d="M500 -236h-500v138h500v-138z" />
    <glyph glyph-name="grave" unicode="`" 
d="M241 775l94 -181h-75l-159 181h140z" />
    <glyph glyph-name="a" unicode="a" horiz-adv-x="689" 
d="M416 237q-37 -14 -66.5 -21t-50.5 -14t-32 -17t-11 -29q0 -23 15.5 -35.5t44.5 -12.5q54 0 77.5 24.5t23.5 77.5v13.5t-1 13.5zM422 51q-41 -36 -87.5 -53t-105.5 -17q-91 0 -139.5 44t-48.5 125q0 44 14 73.5t42.5 48.5t72 30t102.5 19q38 5 65.5 7.5t45.5 7.5
t26.5 14.5t8.5 27.5q0 44 -76 44q-65 0 -71 -53h-206q3 181 284 181q73 0 126.5 -13.5t80.5 -31.5q21 -14 34 -29t20.5 -33t10.5 -39t3 -48v-296q0 -30 23 -45v-15h-212z" />
    <glyph glyph-name="b" unicode="b" horiz-adv-x="676" 
d="M261 260q0 -60 23.5 -91.5t63.5 -31.5t63 31.5t23 91.5q0 123 -86 123q-87 0 -87 -123zM57 719h206v-244q63 71 152 71q52 0 94.5 -20t73 -56.5t47 -89t16.5 -117.5t-17 -117t-47 -89t-72 -56.5t-92 -19.5q-106 0 -174 84v-65h-187v719z" />
    <glyph glyph-name="c" unicode="c" horiz-adv-x="652" 
d="M622 207q-3 -52 -24.5 -94t-58.5 -71t-89 -45t-116 -16q-71 0 -127.5 20t-96 57t-60.5 90t-21 118q0 66 21 118.5t60 89.5t95 56.5t127 19.5q65 0 117.5 -16t89.5 -45t58 -69.5t23 -90.5h-211q-6 74 -78 74q-47 0 -68 -33.5t-21 -103.5q0 -71 20.5 -104.5t66.5 -33.5
q74 0 82 79h211z" />
    <glyph glyph-name="d" unicode="d" horiz-adv-x="677" 
d="M433 0v65q-68 -84 -174 -84q-50 0 -92 19.5t-72 56.5t-47 89t-17 117t17 117.5t47 89.5t71.5 57t90.5 20q94 0 157 -73v245h206v-719h-187zM329 137q40 0 63.5 31.5t23.5 91.5q0 123 -87 123q-86 0 -86 -123q0 -60 23 -91.5t63 -31.5z" />
    <glyph glyph-name="e" unicode="e" horiz-adv-x="666" 
d="M428 325q-6 99 -96 99q-42 0 -66 -25.5t-26 -73.5h188zM619 157q-22 -87 -95.5 -131.5t-197.5 -44.5q-69 0 -124 20t-93.5 56.5t-59 88.5t-20.5 115q0 67 21 120.5t60.5 91t96 57.5t127.5 20q70 0 126 -21.5t95 -62.5t60 -100t21 -134v-13h-396q2 -51 27 -78.5t71 -27.5
q63 0 79 44h202z" />
    <glyph glyph-name="f" unicode="f" horiz-adv-x="384" 
d="M77 411h-66v120h66v33q0 90 44 131.5t138 41.5h118v-133q-6 0 -11.5 0.5t-10.5 0.5q-38 0 -53.5 -12.5t-15.5 -45.5q0 -4 0.5 -7.5t0.5 -8.5h90v-120h-90v-411h-210v411z" />
    <glyph glyph-name="g" unicode="g" horiz-adv-x="677" 
d="M242 269q0 -126 85 -126q47 0 68 31t21 94q0 59 -23.5 90t-65.5 31q-85 0 -85 -120zM276 -57q4 -20 18.5 -28t43.5 -8q26 0 41.5 6t24 19t11 34.5t2.5 51.5v29q-53 -52 -148 -52q-54 0 -97.5 19t-74.5 54.5t-48 85t-17 110.5q0 66 16.5 118t46.5 88t71.5 55.5t92.5 19.5
q57 0 99.5 -20t74.5 -63v69h187v-490q0 -69 -16 -117.5t-51.5 -79t-92 -44.5t-137.5 -14q-115 0 -180 41.5t-76 115.5h209z" />
    <glyph glyph-name="h" unicode="h" horiz-adv-x="683" 
d="M57 719h211v-245q65 71 163 71q101 0 155 -64q30 -36 37 -86t7 -119v-276h-211v275q0 55 -14 80.5t-58 25.5q-79 0 -79 -107v-274h-211v719z" />
    <glyph glyph-name="i" unicode="i" horiz-adv-x="338" 
d="M62 737h213v-152h-213v152zM62 531h213v-531h-213v531z" />
    <glyph glyph-name="j" unicode="j" horiz-adv-x="343" 
d="M71 737h213v-152h-213v152zM284 -8q0 -109 -41.5 -157.5t-140.5 -48.5h-119v157h19q21 0 34.5 3t21 11.5t10.5 22.5t3 36v515h213v-539z" />
    <glyph glyph-name="k" unicode="k" horiz-adv-x="671" 
d="M57 719h211v-351l139 163h237l-197 -196l224 -335h-251l-116 190l-36 -37v-153h-211v719z" />
    <glyph glyph-name="l" unicode="l" horiz-adv-x="338" 
d="M62 719h213v-719h-213v719z" />
    <glyph glyph-name="m" unicode="m" horiz-adv-x="1024" 
d="M57 531h192v-78q35 48 79 70t101 22q53 0 90.5 -22t67.5 -70q38 48 83.5 70.5t104.5 22.5q94 0 145.5 -48t51.5 -136v-362h-208v284q0 49 -16.5 72t-54.5 23q-39 0 -57 -23.5t-18 -73.5v-282h-207v277q0 54 -16.5 78t-57.5 24q-72 0 -72 -94v-285h-208v531z" />
    <glyph glyph-name="n" unicode="n" horiz-adv-x="683" 
d="M57 531h192v-78q73 92 186 92q98 0 151 -64q31 -37 37.5 -86.5t6.5 -118.5v-276h-211v275q0 55 -14 80.5t-58 25.5q-79 0 -79 -107v-274h-211v531z" />
    <glyph glyph-name="o" unicode="o" horiz-adv-x="658" 
d="M242 266q0 -71 19.5 -104.5t67.5 -33.5t68 33.5t20 104.5t-20 104t-68 33t-67.5 -33t-19.5 -104zM29 266q0 66 20.5 118.5t59.5 89.5t94.5 56.5t125.5 19.5t125.5 -19.5t94.5 -56.5t59.5 -89.5t20.5 -118.5t-20.5 -119t-59.5 -89.5t-94.5 -56.5t-125.5 -20t-125.5 20
t-94.5 56.5t-59.5 89.5t-20.5 119z" />
    <glyph glyph-name="p" unicode="p" horiz-adv-x="677" 
d="M437 264q0 123 -85 123q-48 0 -68.5 -30t-20.5 -93q0 -120 87 -120t87 120zM58 531h187v-68q32 43 73.5 62.5t98.5 19.5q51 0 93 -20t73 -56.5t48 -88.5t17 -116q0 -65 -17 -117t-47.5 -89t-74 -56.5t-96.5 -19.5q-49 0 -85.5 16.5t-64.5 51.5v-263h-205v744z" />
    <glyph glyph-name="q" unicode="q" horiz-adv-x="677" 
d="M416 266q0 60 -23.5 91.5t-63.5 31.5q-45 0 -66 -30t-21 -93t20.5 -92.5t66.5 -29.5q87 0 87 122zM620 -213h-205v265q-58 -70 -154 -70q-51 0 -93.5 20t-73 56.5t-47 88.5t-16.5 117t17 117t47.5 89t73 56.5t94.5 19.5q54 0 94.5 -20t75.5 -64v69h187v-744z" />
    <glyph glyph-name="r" unicode="r" horiz-adv-x="457" 
d="M58 531h195v-97q21 59 60.5 85t104.5 26h19v-211q-24 3 -43 3q-64 0 -94 -28.5t-30 -90.5v-218h-212v531z" />
    <glyph glyph-name="s" unicode="s" horiz-adv-x="612" 
d="M236 167q0 -67 69 -67t69 44q0 14 -5.5 22.5t-17 14t-28 9.5t-38.5 9q-62 13 -107 26.5t-74.5 32.5t-44 47t-14.5 70q0 85 65.5 130t195.5 45q239 0 259 -167h-190q-2 23 -20 37.5t-47 14.5q-57 0 -57 -37q0 -14 6.5 -22t19 -13t31.5 -8.5t44 -9.5q59 -14 102.5 -27.5
t72 -33t42.5 -48t14 -71.5q0 -184 -281 -184q-258 0 -271 186h205z" />
    <glyph glyph-name="t" unicode="t" horiz-adv-x="429" 
d="M301 197q0 -29 16.5 -39t54.5 -10h14.5t15.5 1v-153q-35 -2 -67.5 -3.5t-63.5 -1.5q-49 0 -83.5 7.5t-56 25.5t-31 47t-9.5 72v266h-75v122h75v164h210v-164h99v-122h-99v-212z" />
    <glyph glyph-name="u" unicode="u" horiz-adv-x="683" 
d="M626 0h-193v78q-73 -92 -186 -92q-98 0 -151 64q-15 18 -24 39.5t-13 47t-5 55t-1 64.5v275h211v-274q0 -55 14 -81t58 -26q79 0 79 108v273h211v-531z" />
    <glyph glyph-name="v" unicode="v" horiz-adv-x="581" 
d="M-6 531h210l92 -319l90 319h201l-172 -531h-236z" />
    <glyph glyph-name="w" unicode="w" horiz-adv-x="932" 
d="M11 531h209l79 -324l82 324h178l82 -324l79 324h201l-167 -531h-207l-77 307l-77 -307h-207z" />
    <glyph glyph-name="x" unicode="x" horiz-adv-x="597" 
d="M177 279l-173 252h230l68 -126l70 126h230l-178 -250l184 -281h-235l-78 147l-74 -147h-232z" />
    <glyph glyph-name="y" unicode="y" horiz-adv-x="587" 
d="M65 -52h60q29 0 43.5 10t14.5 35q0 21 -11 52l-178 486h214l93 -322l90 322h199l-172 -528q-20 -62 -37.5 -105.5t-41.5 -66.5q-31 -31 -71 -37.5t-96 -6.5q-19 0 -45.5 1t-61.5 3v157z" />
    <glyph glyph-name="z" unicode="z" horiz-adv-x="535" 
d="M13 143l242 233h-221v155h470v-142l-236 -234h248v-155h-503v143z" />
    <glyph glyph-name="braceleft" unicode="{" 
d="M442 582q-6 0 -11 0.5t-10 0.5q-23 0 -37 -3.5t-22 -12.5t-10.5 -24t-2.5 -37v-117q0 -30 -4.5 -52t-16.5 -37.5t-32.5 -25t-52.5 -15.5q32 -6 52.5 -15.5t32.5 -25t16.5 -37t4.5 -51.5v-118q0 -22 2.5 -36.5t10.5 -23.5t21.5 -12.5t36.5 -3.5q5 0 10.5 0.5t11.5 0.5
v-139h-39q-54 0 -94 4t-68 18q-36 18 -44.5 50t-8.5 82v126q0 61 -22 87t-78 26q-4 0 -8 -0.5t-9 -0.5v138q5 0 9 -0.5t8 -0.5q56 0 78 26t22 87v126q0 50 8.5 82.5t44.5 50.5q29 14 68.5 18t93.5 4h39v-139z" />
    <glyph glyph-name="bar" unicode="|" 
d="M319 -236h-137v1000h137v-1000z" />
    <glyph glyph-name="braceright" unicode="}" 
d="M313 440q0 -61 22 -87t78 -26q4 0 8 0.5t9 0.5v-138q-5 0 -9 0.5t-8 0.5q-56 0 -78 -26t-22 -87v-126q0 -51 -9 -83t-45 -50q-27 -14 -65 -17.5t-89 -3.5h-46v138h21q23 0 37 3.5t22 12.5t10.5 23.5t2.5 36.5v118q0 30 4.5 51.5t16.5 37t32.5 25t52.5 15.5
q-32 6 -52.5 15.5t-32.5 24.5t-16.5 37t-4.5 52v118q0 22 -2.5 37t-10.5 24t-22 12.5t-37 3.5q-5 0 -10 -0.5t-11 -0.5v139h39q54 0 93.5 -4t67.5 -18q36 -18 45 -50t9 -83v-126z" />
    <glyph glyph-name="asciitilde" unicode="~" horiz-adv-x="833" 
d="M747 265q-48 -32 -92 -48.5t-89 -16.5q-36 0 -68 8.5t-62 19.5q-38 13 -77 23.5t-85 10.5q-44 0 -89 -19.5t-98 -57.5v146q54 34 101.5 52t97.5 18q34 0 67.5 -7.5t68.5 -18.5q37 -12 72 -24.5t74 -12.5q44 0 87.5 18.5t91.5 54.5v-146z" />
    <glyph glyph-name="exclamdown" unicode="&#xa1;" horiz-adv-x="375" 
d="M293 521h-211v198h211v-198zM295 180v-180h-215v180l49 282h117z" />
    <glyph glyph-name="cent" unicode="&#xa2;" horiz-adv-x="657" 
d="M359 405q-10 2 -18 3t-14 1q-94 0 -94 -142q0 -35 5 -62t16 -47zM189 8q-78 32 -119.5 99t-41.5 159q0 66 20.5 118.5t59.5 89.5t95 56.5t127 19.5q41 0 88 -9l42 100h79l-52 -123q128 -60 131 -189h-192q0 16 -7 31l-100 -237q4 0 7 -0.5t7 -0.5q79 0 87 85h201
q-3 -52 -23.5 -93.5t-57.5 -71t-87.5 -45.5t-113.5 -16q-16 0 -36 2t-44 5l-53 -131h-80z" />
    <glyph glyph-name="sterling" unicode="&#xa3;" horiz-adv-x="657" 
d="M17 144q56 32 83 66.5t27 77.5q0 14 -3 29h-87v87h57q-32 58 -32 111q0 46 18.5 83.5t54 64t86.5 41t116 14.5q138 0 211.5 -64.5t74.5 -184.5h-186q-3 93 -87 93q-35 0 -56.5 -17.5t-21.5 -44.5q0 -20 9 -42.5t25 -53.5h105v-87h-91q-1 -33 -21 -63t-60 -59
q23 6 42.5 9.5t34.5 3.5q20 0 39 -4.5t36 -10t33.5 -10t31.5 -4.5q25 0 49 11t52 33l81 -166q-34 -34 -77 -52t-88 -18q-41 0 -70 11t-54 21q-26 10 -51.5 17.5t-52.5 7.5q-64 0 -137 -55z" />
    <glyph glyph-name="currency" unicode="&#xa4;" horiz-adv-x="606" 
d="M423 432q0 24 -9.5 45.5t-26 38t-38 26t-45.5 9.5t-46 -9.5t-38.5 -26t-26 -38t-9.5 -45.5t9.5 -45.5t26 -38t38 -26t46.5 -9.5q24 0 46 9.5t38 26t25.5 38t9.5 45.5zM188 612q26 17 54.5 25t61.5 8q66 0 115 -33l97 97l65 -66l-96 -99q16 -26 24 -53t8 -59
q0 -60 -32 -112l96 -98l-65 -67l-97 98q-50 -34 -115 -34q-64 0 -116 34l-97 -98l-65 67l96 98q-32 49 -32 113q0 61 32 111l-96 99l65 66z" />
    <glyph glyph-name="yen" unicode="&#xa5;" horiz-adv-x="731" 
d="M267 247h-245v92h200l-33 58h-167v93h114l-123 212h220l135 -262l138 262h213l-120 -212h111v-93h-164l-33 -58h197v-92h-240v-247h-203v247z" />
    <glyph glyph-name="brokenbar" unicode="&#xa6;" 
d="M319 -171h-137v370h137v-370zM319 329h-137v370h137v-370z" />
    <glyph glyph-name="section" unicode="&#xa7;" 
d="M310 240q44 17 44 50q0 16 -11 27t-32 21.5t-51.5 23t-68.5 32.5q-23 -13 -35 -27t-12 -32q0 -14 11 -24t32 -19.5t52 -21.5t71 -30zM187 82v-4q0 -32 19.5 -52t48.5 -20q25 0 40.5 13t15.5 32q0 23 -20 34t-57 25l-75 29q-153 58 -153 181q0 47 20.5 78.5t65.5 57.5
q-51 43 -51 116q0 78 51.5 122.5t148.5 44.5q107 0 161.5 -45.5t56.5 -134.5h-153q0 32 -16.5 49.5t-44.5 17.5q-25 0 -38 -11t-13 -29q0 -35 78 -66l78 -33q144 -59 144 -177q0 -100 -85 -133q58 -51 58 -122q0 -74 -54.5 -119t-154.5 -45q-218 0 -220 191h149z" />
    <glyph glyph-name="dieresis" unicode="&#xa8;" 
d="M277 750h123v-132h-123v132zM100 750h122v-132h-122v132z" />
    <glyph glyph-name="copyright" unicode="&#xa9;" horiz-adv-x="833" 
d="M482 431q-2 31 -18.5 48.5t-45.5 17.5q-35 0 -55.5 -33.5t-20.5 -99.5q0 -128 80 -128q59 0 62 70h121q-3 -73 -53 -116t-133 -43q-96 0 -150 56.5t-54 156.5q0 50 14.5 90t40.5 68.5t62 44t78 15.5q88 0 137 -39t53 -108h-118zM709 363q0 60 -22 112.5t-63 93.5
q-86 86 -207 86q-60 0 -112 -21t-93 -63q-42 -43 -64.5 -96.5t-22.5 -111.5t22 -111t64 -95t94.5 -64t111.5 -22q58 0 111 22t97 65q84 82 84 205zM416 729q75 0 142 -27t120 -80q51 -51 78.5 -118t27.5 -142q0 -76 -27 -141t-79 -116q-54 -54 -122 -82t-140 -28
q-73 0 -138.5 27.5t-119.5 81.5q-53 53 -80.5 119t-27.5 139t27.5 140.5t81.5 121.5q51 51 116.5 78t140.5 27z" />
    <glyph glyph-name="ordfeminine" unicode="&#xaa;" horiz-adv-x="517" 
d="M312 513q-27 -10 -49.5 -15t-38 -10t-24 -12t-8.5 -20q0 -33 45 -33q40 0 58 17t18 54v9.5t-1 9.5zM317 383q-31 -26 -66 -37.5t-79 -11.5q-69 0 -105 30.5t-36 87.5q0 31 10.5 51.5t32 34t54 21.5t76.5 13q29 3 49.5 5t34 5.5t20 10t6.5 19.5q0 30 -57 30q-50 0 -54 -37
h-154q2 127 213 127q55 0 95 -9.5t60 -22.5q31 -20 41 -43.5t10 -60.5v-207q0 -21 17 -32v-10h-159z" />
    <glyph glyph-name="guillemotleft" unicode="&#xab;" horiz-adv-x="512" 
d="M284 190v149l187 120v-135l-93 -60l93 -60v-135zM32 190v149l186 120v-135l-93 -60l93 -60v-135z" />
    <glyph glyph-name="logicalnot" unicode="&#xac;" horiz-adv-x="833" 
d="M709 179h-133v115h-452v130h585v-245z" />
    <glyph glyph-name="registered" unicode="&#xae;" horiz-adv-x="833" 
d="M383 491v-94h26q58 0 58 48q0 46 -65 46h-19zM421 569q87 0 130.5 -30t43.5 -87q0 -38 -20.5 -65.5t-59.5 -41.5l87 -173h-136l-71 152h-12v-152h-125v397h163zM709 363q0 60 -22 112.5t-63 93.5q-86 86 -207 86q-60 0 -112 -21t-93 -63q-42 -43 -64.5 -96.5
t-22.5 -111.5t22 -111t64 -95t94.5 -64t111.5 -22q58 0 111 22t97 65q84 82 84 205zM416 729q75 0 142 -27t120 -80q51 -51 78.5 -118t27.5 -142q0 -76 -27 -141t-79 -116q-54 -54 -122 -82t-140 -28q-73 0 -138.5 27.5t-119.5 81.5q-53 53 -80.5 119t-27.5 139t27.5 140.5
t81.5 121.5q51 51 116.5 78t140.5 27z" />
    <glyph glyph-name="macron" unicode="&#xaf;" 
d="M100 725h300v-82h-300v82z" />
    <glyph glyph-name="macron" unicode="&#x2c9;" 
d="M100 725h300v-82h-300v82z" />
    <glyph glyph-name="degree" unicode="&#xb0;" horiz-adv-x="329" 
d="M239 562q0 30 -22 52t-53 22q-30 0 -51.5 -21.5t-21.5 -52.5t21 -53t53 -22q31 0 52.5 22.5t21.5 52.5zM165 719q33 0 61.5 -12.5t49.5 -33.5t33.5 -50t12.5 -62q0 -32 -12.5 -60.5t-33.5 -50t-50 -34t-62 -12.5t-61.5 12t-49.5 33.5t-33.5 50t-12.5 61.5t12.5 62t34 50
t50.5 33.5t61 12.5z" />
    <glyph glyph-name="plusminus" unicode="&#xb1;" horiz-adv-x="833" 
d="M709 -20h-585v133h585v-133zM485 465h224v-133h-224v-151h-137v151h-224v133h224v151h137v-151z" />
    <glyph glyph-name="twosuperior" unicode="&#xb2;" horiz-adv-x="434" 
d="M18 281q0 3 -0.5 5.5t-0.5 4.5q0 48 32 87.5t96 80.5q27 18 50 30.5t39.5 24t26 23.5t9.5 28q0 26 -15 40t-41 14q-65 0 -65 -76v-8h-123v12q0 78 52 122.5t143 44.5q86 0 135 -38t49 -99q0 -24 -6.5 -42t-19 -32t-31 -27t-42.5 -26q-24 -14 -52.5 -28.5t-57.5 -37.5h207
v-103h-385z" />
    <glyph glyph-name="threesuperior" unicode="&#xb3;" horiz-adv-x="434" 
d="M149 430q1 -62 65 -62q58 0 58 49q0 26 -18.5 36t-56.5 10h-12v73h10q74 0 74 43q0 39 -52 39q-56 0 -59 -46h-125q2 64 52 103t135 39q83 0 130 -34.5t47 -88.5q0 -57 -51 -82q63 -23 63 -94q0 -68 -51.5 -107t-147.5 -39q-88 0 -138 41t-50 111v9h127z" />
    <glyph glyph-name="acute" unicode="&#xb4;" 
d="M240 594h-75l94 181h140z" />
    <glyph glyph-name="mu" unicode="&#xb5;" horiz-adv-x="670" 
d="M253 231q-1 -7 -1.5 -13.5t-0.5 -12.5q0 -65 62 -65q39 0 60.5 25.5t29.5 78.5l41 287h204l-77 -531h-180l9 64q-35 -66 -92 -66q-60 0 -86 61l-35 -265h-201l102 737h206z" />
    <glyph glyph-name="mu" unicode="&#x3bc;" horiz-adv-x="670" 
d="M253 231q-1 -7 -1.5 -13.5t-0.5 -12.5q0 -65 62 -65q39 0 60.5 25.5t29.5 78.5l41 287h204l-77 -531h-180l9 64q-35 -66 -92 -66q-60 0 -86 61l-35 -265h-201l102 737h206z" />
    <glyph glyph-name="paragraph" unicode="&#xb6;" 
d="M446 653v-653h-99v653h-68v-653h-99v383q-41 2 -73 15t-55 35.5t-35 52.5t-12 66q0 37 13 68.5t38 54t60 35t79 12.5h300v-69h-49z" />
    <glyph glyph-name="periodcentered" unicode="&#xb7;" horiz-adv-x="329" 
d="M59 350q0 22 8 41.5t22.5 34t33.5 22.5t41 8t41 -8.5t33.5 -22.5t23 -33.5t8.5 -41.5t-8.5 -41t-22.5 -33.5t-33.5 -22.5t-41.5 -8q-45 0 -75 30t-30 75z" />
    <glyph glyph-name="periodcentered" unicode="&#x2219;" horiz-adv-x="329" 
d="M59 350q0 22 8 41.5t22.5 34t33.5 22.5t41 8t41 -8.5t33.5 -22.5t23 -33.5t8.5 -41.5t-8.5 -41t-22.5 -33.5t-33.5 -22.5t-41.5 -8q-45 0 -75 30t-30 75z" />
    <glyph glyph-name="cedilla" unicode="&#xb8;" 
d="M133 -147q44 -12 77 -17t55 -5q42 0 42 35q0 31 -58 31h-12.5t-14.5 -1v104h56v-41h9q55 0 83.5 -24.5t28.5 -69.5q0 -48 -32 -75t-92 -27t-142 22v68z" />
    <glyph glyph-name="onesuperior" unicode="&#xb9;" horiz-adv-x="434" 
d="M170 526h-104v87q64 2 95.5 21.5t39.5 67.5h105v-421h-136v245z" />
    <glyph glyph-name="ordmasculine" unicode="&#xba;" horiz-adv-x="494" 
d="M182 533q0 -50 14.5 -73t50.5 -23t51 23t15 73t-15 73t-51 23t-50.5 -23t-14.5 -73zM22 533q0 93 59.5 146t165.5 53t165.5 -53t59.5 -146t-59.5 -146t-165.5 -53t-165.5 53t-59.5 146z" />
    <glyph glyph-name="guillemotright" unicode="&#xbb;" horiz-adv-x="512" 
d="M480 339v-149l-186 -121v135l92 60l-92 60v135zM227 339v-149l-186 -121v135l93 60l-93 60v135z" />
    <glyph glyph-name="onequarter" unicode="&#xbc;" horiz-adv-x="995" 
d="M803 171v115l-107 -115h107zM800 82h-203v95l206 216h123v-222h52v-89h-52v-82h-126v82zM648 721h99l-401 -741h-99zM163 537h-99v82q60 1 90 19.5t38 63.5h100v-393h-129v228z" />
    <glyph glyph-name="onehalf" unicode="&#xbd;" horiz-adv-x="995" 
d="M598 0q0 2 -0.5 4.5t-0.5 5.5q0 44 30.5 81t92.5 75q26 16 48 28t37.5 23t24.5 22t9 26q0 24 -14 37t-40 13q-62 0 -62 -71v-7h-117v12q0 73 49 114t137 41q81 0 128 -35t47 -92q0 -23 -6 -39.5t-18 -30t-29.5 -25t-40.5 -24.5t-50 -27t-55 -35h198v-96h-368zM648 721h99
l-401 -741h-99zM163 537h-99v82q60 1 90 19.5t38 63.5h100v-393h-129v228z" />
    <glyph glyph-name="threequarters" unicode="&#xbe;" horiz-adv-x="995" 
d="M803 171v115l-107 -115h107zM800 82h-203v95l206 216h123v-222h52v-89h-52v-82h-126v82zM648 721h99l-401 -741h-99zM142 448q1 -58 62 -58q56 0 56 46q0 23 -17.5 33t-54.5 10h-11v68h9q70 0 70 40q0 37 -49 37q-55 0 -56 -43h-120q2 60 50 96t129 36q79 0 124 -31.5
t45 -82.5q0 -54 -49 -77q60 -21 60 -88q0 -63 -49.5 -99.5t-140.5 -36.5q-83 0 -131 38t-48 104v8h121z" />
    <glyph glyph-name="questiondown" unicode="&#xbf;" horiz-adv-x="627" 
d="M413 462q1 -10 1.5 -19.5t0.5 -18.5q0 -53 -15.5 -87t-51.5 -55q-20 -12 -39 -19.5t-34 -16t-24 -20t-9 -30.5q0 -26 18.5 -43t51.5 -17q36 0 55.5 20.5t19.5 61.5v3h209q-6 -116 -79.5 -178.5t-207.5 -62.5q-65 0 -116.5 15.5t-87.5 43.5t-55 66.5t-19 83.5q0 67 37 108
q23 26 54.5 42t63.5 35q24 14 33.5 27t9.5 43q0 5 -0.5 9t-0.5 9h185zM426 520h-210v198h210v-198z" />
    <glyph glyph-name="Agrave" unicode="&#xc0;" horiz-adv-x="735" 
d="M439 246l-72 249l-73 -249h145zM250 719h234l253 -719h-229l-27 95h-229l-28 -95h-227zM359 963l94 -181h-75l-159 181h140z" />
    <glyph glyph-name="Aacute" unicode="&#xc1;" horiz-adv-x="735" 
d="M439 246l-72 249l-73 -249h145zM250 719h234l253 -719h-229l-27 95h-229l-28 -95h-227zM358 782h-75l94 181h140z" />
    <glyph glyph-name="Acircumflex" unicode="&#xc2;" horiz-adv-x="735" 
d="M439 246l-72 249l-73 -249h145zM250 719h234l253 -719h-229l-27 95h-229l-28 -95h-227zM305 963h125l94 -181h-75l-81 97l-82 -97h-75z" />
    <glyph glyph-name="Atilde" unicode="&#xc3;" horiz-adv-x="735" 
d="M439 246l-72 249l-73 -249h145zM250 719h234l253 -719h-229l-27 95h-229l-28 -95h-227zM530 941q-14 -63 -39.5 -93.5t-67.5 -30.5q-9 0 -18 1t-19 4l-45 13q-23 6 -33 6q-31 0 -44 -37h-58q14 61 39 90.5t66 29.5q15 0 44 -8l46 -13q12 -4 28 -4q32 0 43 42h58z" />
    <glyph glyph-name="Adieresis" unicode="&#xc4;" horiz-adv-x="735" 
d="M439 246l-72 249l-73 -249h145zM250 719h234l253 -719h-229l-27 95h-229l-28 -95h-227zM395 938h123v-132h-123v132zM218 938h122v-132h-122v132z" />
    <glyph glyph-name="Aring" unicode="&#xc5;" horiz-adv-x="735" 
d="M246 842q0 25 9.5 47t25.5 38.5t38 26t47 9.5t47 -9.5t38.5 -26t26 -38.5t9.5 -47t-9.5 -47t-26 -38t-38.5 -25t-47 -9t-47 9t-38 25t-25.5 38t-9.5 47zM318 843q0 -20 14.5 -34t34.5 -14t34 14t14 34t-14 34t-34 14t-34.5 -14t-14.5 -34zM439 246l-72 249l-73 -249h145z
M243 699h247l247 -699h-229l-27 95h-229l-28 -95h-227z" />
    <glyph glyph-name="AE" unicode="&#xc6;" horiz-adv-x="1034" 
d="M444 246v307h-63l-101 -307h164zM253 719h724v-172h-321v-96h267v-165h-267v-111h337v-175h-549v95h-213l-32 -95h-228z" />
    <glyph glyph-name="Ccedilla" unicode="&#xc7;" horiz-adv-x="782" 
d="M753 279q-10 -143 -99.5 -221t-245.5 -78q-87 0 -155.5 26.5t-116.5 75.5t-73.5 119t-25.5 158t25.5 158.5t73 119.5t115.5 75t152 26q158 0 246.5 -75.5t99.5 -215.5h-221q-11 111 -122 111q-136 0 -136 -199t142 -199q54 0 85.5 30.5t36.5 88.5h219zM289 -147
q44 -12 77 -17t55 -5q42 0 42 35q0 31 -58 31h-12.5t-14.5 -1v104h56v-41h9q55 0 83.5 -24.5t28.5 -69.5q0 -48 -32 -75t-92 -27t-142 22v68z" />
    <glyph glyph-name="Egrave" unicode="&#xc8;" horiz-adv-x="697" 
d="M68 719h575v-172h-344v-96h291v-165h-291v-111h358v-175h-589v719zM340 963l94 -181h-75l-159 181h140z" />
    <glyph glyph-name="Eacute" unicode="&#xc9;" horiz-adv-x="697" 
d="M68 719h575v-172h-344v-96h291v-165h-291v-111h358v-175h-589v719zM339 782h-75l94 181h140z" />
    <glyph glyph-name="Ecircumflex" unicode="&#xca;" horiz-adv-x="697" 
d="M68 719h575v-172h-344v-96h291v-165h-291v-111h358v-175h-589v719zM286 963h125l94 -181h-75l-81 97l-82 -97h-75z" />
    <glyph glyph-name="Edieresis" unicode="&#xcb;" horiz-adv-x="697" 
d="M68 719h575v-172h-344v-96h291v-165h-291v-111h358v-175h-589v719zM376 938h123v-132h-123v132zM199 938h122v-132h-122v132z" />
    <glyph glyph-name="Igrave" unicode="&#xcc;" horiz-adv-x="380" 
d="M72 719h235v-719h-235v719zM182 963l94 -181h-75l-159 181h140z" />
    <glyph glyph-name="Iacute" unicode="&#xcd;" horiz-adv-x="380" 
d="M72 719h235v-719h-235v719zM181 782h-75l94 181h140z" />
    <glyph glyph-name="Icircumflex" unicode="&#xce;" horiz-adv-x="380" 
d="M72 719h235v-719h-235v719zM128 963h125l94 -181h-75l-81 97l-82 -97h-75z" />
    <glyph glyph-name="Idieresis" unicode="&#xcf;" horiz-adv-x="380" 
d="M72 719h235v-719h-235v719zM218 938h123v-132h-123v132zM41 938h122v-132h-122v132z" />
    <glyph glyph-name="Eth" unicode="&#xd0;" horiz-adv-x="788" 
d="M73 316h-73v120h73v283h279q77 0 137.5 -6.5t110.5 -34.5q150 -87 150 -319q0 -247 -183 -329q-46 -21 -109.5 -25.5t-148.5 -4.5h-236v316zM366 182q43 0 72 9t47 29.5t26 54.5t8 84q0 49 -8 83t-26 55t-46.5 30.5t-69.5 9.5h-65v-101h102v-120h-102v-134h62z" />
    <glyph glyph-name="Ntilde" unicode="&#xd1;" horiz-adv-x="814" 
d="M68 719h219l202 -334q18 -29 42 -103q-4 23 -5 47.5t-1 50.5v339h220v-719h-220l-202 332q-8 14 -19 39.5t-23 63.5q5 -27 5.5 -51.5t0.5 -46.5v-337h-219v719zM569 941q-14 -63 -39.5 -93.5t-67.5 -30.5q-9 0 -18 1t-19 4l-45 13q-23 6 -33 6q-31 0 -44 -37h-58
q14 61 39 90.5t66 29.5q15 0 44 -8l46 -13q12 -4 28 -4q32 0 43 42h58z" />
    <glyph glyph-name="Ograve" unicode="&#xd2;" horiz-adv-x="822" 
d="M270 359q0 -102 33.5 -150t107.5 -48t107 48t33 150t-33 150t-107 48t-107.5 -48t-33.5 -150zM37 359q0 88 26 158t74.5 119t117.5 75.5t156 26.5t156 -26.5t117 -75.5t74 -119t26 -158t-26 -158t-74 -119t-117 -75.5t-156 -26.5t-156 26.5t-117.5 75.5t-74.5 119
t-26 158zM402 963l94 -181h-75l-159 181h140z" />
    <glyph glyph-name="Oacute" unicode="&#xd3;" horiz-adv-x="822" 
d="M270 359q0 -102 33.5 -150t107.5 -48t107 48t33 150t-33 150t-107 48t-107.5 -48t-33.5 -150zM37 359q0 88 26 158t74.5 119t117.5 75.5t156 26.5t156 -26.5t117 -75.5t74 -119t26 -158t-26 -158t-74 -119t-117 -75.5t-156 -26.5t-156 26.5t-117.5 75.5t-74.5 119
t-26 158zM401 782h-75l94 181h140z" />
    <glyph glyph-name="Ocircumflex" unicode="&#xd4;" horiz-adv-x="822" 
d="M270 359q0 -102 33.5 -150t107.5 -48t107 48t33 150t-33 150t-107 48t-107.5 -48t-33.5 -150zM37 359q0 88 26 158t74.5 119t117.5 75.5t156 26.5t156 -26.5t117 -75.5t74 -119t26 -158t-26 -158t-74 -119t-117 -75.5t-156 -26.5t-156 26.5t-117.5 75.5t-74.5 119
t-26 158zM348 963h125l94 -181h-75l-81 97l-82 -97h-75z" />
    <glyph glyph-name="Otilde" unicode="&#xd5;" horiz-adv-x="822" 
d="M270 359q0 -102 33.5 -150t107.5 -48t107 48t33 150t-33 150t-107 48t-107.5 -48t-33.5 -150zM37 359q0 88 26 158t74.5 119t117.5 75.5t156 26.5t156 -26.5t117 -75.5t74 -119t26 -158t-26 -158t-74 -119t-117 -75.5t-156 -26.5t-156 26.5t-117.5 75.5t-74.5 119
t-26 158zM573 941q-14 -63 -39.5 -93.5t-67.5 -30.5q-9 0 -18 1t-19 4l-45 13q-23 6 -33 6q-31 0 -44 -37h-58q14 61 39 90.5t66 29.5q15 0 44 -8l46 -13q12 -4 28 -4q32 0 43 42h58z" />
    <glyph glyph-name="Odieresis" unicode="&#xd6;" horiz-adv-x="822" 
d="M270 359q0 -102 33.5 -150t107.5 -48t107 48t33 150t-33 150t-107 48t-107.5 -48t-33.5 -150zM37 359q0 88 26 158t74.5 119t117.5 75.5t156 26.5t156 -26.5t117 -75.5t74 -119t26 -158t-26 -158t-74 -119t-117 -75.5t-156 -26.5t-156 26.5t-117.5 75.5t-74.5 119
t-26 158zM438 938h123v-132h-123v132zM261 938h122v-132h-122v132z" />
    <glyph glyph-name="multiply" unicode="&#xd7;" horiz-adv-x="833" 
d="M635 601l95 -95l-208 -208l208 -208l-95 -95l-208 208l-208 -208l-95 95l208 208l-208 208l95 95l208 -208z" />
    <glyph glyph-name="Oslash" unicode="&#xd8;" horiz-adv-x="822" 
d="M323 179q33 -23 86 -23q78 0 113 51.5t35 160.5q0 30 -4 58t-13 56zM497 539q-38 24 -86 24q-75 0 -110.5 -49.5t-35.5 -152.5q0 -72 18 -123zM151 70q-59 57 -86.5 126t-27.5 158q0 90 25.5 161t74 120.5t117.5 76t156 26.5q54 0 101.5 -10t90.5 -32l54 76l67 -45
l-54 -77q115 -109 115 -288q0 -89 -26 -160t-75 -120.5t-118.5 -75.5t-157.5 -26q-114 0 -189 42l-68 -95l-67 45z" />
    <glyph glyph-name="Ugrave" unicode="&#xd9;" horiz-adv-x="815" 
d="M297 719v-443q0 -60 24 -87t87 -27q62 0 85.5 27.5t23.5 86.5v443h231v-461q0 -136 -86 -207t-254 -71t-255 71t-87 207v461h231zM399 963l94 -181h-75l-159 181h140z" />
    <glyph glyph-name="Uacute" unicode="&#xda;" horiz-adv-x="815" 
d="M297 719v-443q0 -60 24 -87t87 -27q62 0 85.5 27.5t23.5 86.5v443h231v-461q0 -136 -86 -207t-254 -71t-255 71t-87 207v461h231zM398 782h-75l94 181h140z" />
    <glyph glyph-name="Ucircumflex" unicode="&#xdb;" horiz-adv-x="815" 
d="M297 719v-443q0 -60 24 -87t87 -27q62 0 85.5 27.5t23.5 86.5v443h231v-461q0 -136 -86 -207t-254 -71t-255 71t-87 207v461h231zM345 963h125l94 -181h-75l-81 97l-82 -97h-75z" />
    <glyph glyph-name="Udieresis" unicode="&#xdc;" horiz-adv-x="815" 
d="M297 719v-443q0 -60 24 -87t87 -27q62 0 85.5 27.5t23.5 86.5v443h231v-461q0 -136 -86 -207t-254 -71t-255 71t-87 207v461h231zM435 938h123v-132h-123v132zM258 938h122v-132h-122v132z" />
    <glyph glyph-name="Yacute" unicode="&#xdd;" horiz-adv-x="736" 
d="M256 266l-265 453h256l124 -245l125 245h249l-258 -453v-266h-231v266zM358 782h-75l94 181h140z" />
    <glyph glyph-name="Thorn" unicode="&#xde;" horiz-adv-x="738" 
d="M373 316q61 0 91 13.5t30 60.5q0 25 -7.5 39.5t-22.5 22t-37.5 9.5t-53.5 2h-74v-147h74zM68 719h231v-80h65q84 0 145.5 -9.5t105.5 -38.5q99 -66 99 -201q0 -121 -70 -185t-207 -64h-138v-141h-231v719z" />
    <glyph glyph-name="germandbls" unicode="&#xdf;" horiz-adv-x="674" 
d="M59 493q0 243 274 243q130 0 200.5 -52t70.5 -142q0 -47 -22 -80t-68 -56q66 -22 98.5 -66.5t32.5 -118.5q0 -54 -16.5 -98t-47 -75t-73 -48t-94.5 -17q-17 0 -40 3t-52 8v132q18 -3 34 -3q41 0 58.5 23.5t17.5 74.5q0 60 -21 87t-72 27h-15v114h11q38 0 52.5 17t14.5 56
q0 76 -69 76q-41 0 -53.5 -25.5t-12.5 -79.5v-493h-208v493z" />
    <glyph glyph-name="agrave" unicode="&#xe0;" horiz-adv-x="689" 
d="M416 237q-37 -14 -66.5 -21t-50.5 -14t-32 -17t-11 -29q0 -23 15.5 -35.5t44.5 -12.5q54 0 77.5 24.5t23.5 77.5v13.5t-1 13.5zM422 51q-41 -36 -87.5 -53t-105.5 -17q-91 0 -139.5 44t-48.5 125q0 44 14 73.5t42.5 48.5t72 30t102.5 19q38 5 65.5 7.5t45.5 7.5
t26.5 14.5t8.5 27.5q0 44 -76 44q-65 0 -71 -53h-206q3 181 284 181q73 0 126.5 -13.5t80.5 -31.5q21 -14 34 -29t20.5 -33t10.5 -39t3 -48v-296q0 -30 23 -45v-15h-212zM348 775l94 -181h-75l-159 181h140z" />
    <glyph glyph-name="aacute" unicode="&#xe1;" horiz-adv-x="689" 
d="M416 237q-37 -14 -66.5 -21t-50.5 -14t-32 -17t-11 -29q0 -23 15.5 -35.5t44.5 -12.5q54 0 77.5 24.5t23.5 77.5v13.5t-1 13.5zM422 51q-41 -36 -87.5 -53t-105.5 -17q-91 0 -139.5 44t-48.5 125q0 44 14 73.5t42.5 48.5t72 30t102.5 19q38 5 65.5 7.5t45.5 7.5
t26.5 14.5t8.5 27.5q0 44 -76 44q-65 0 -71 -53h-206q3 181 284 181q73 0 126.5 -13.5t80.5 -31.5q21 -14 34 -29t20.5 -33t10.5 -39t3 -48v-296q0 -30 23 -45v-15h-212zM347 594h-75l94 181h140z" />
    <glyph glyph-name="acircumflex" unicode="&#xe2;" horiz-adv-x="689" 
d="M416 237q-37 -14 -66.5 -21t-50.5 -14t-32 -17t-11 -29q0 -23 15.5 -35.5t44.5 -12.5q54 0 77.5 24.5t23.5 77.5v13.5t-1 13.5zM422 51q-41 -36 -87.5 -53t-105.5 -17q-91 0 -139.5 44t-48.5 125q0 44 14 73.5t42.5 48.5t72 30t102.5 19q38 5 65.5 7.5t45.5 7.5
t26.5 14.5t8.5 27.5q0 44 -76 44q-65 0 -71 -53h-206q3 181 284 181q73 0 126.5 -13.5t80.5 -31.5q21 -14 34 -29t20.5 -33t10.5 -39t3 -48v-296q0 -30 23 -45v-15h-212zM294 775h125l94 -181h-75l-81 97l-82 -97h-75z" />
    <glyph glyph-name="atilde" unicode="&#xe3;" horiz-adv-x="689" 
d="M416 237q-37 -14 -66.5 -21t-50.5 -14t-32 -17t-11 -29q0 -23 15.5 -35.5t44.5 -12.5q54 0 77.5 24.5t23.5 77.5v13.5t-1 13.5zM422 51q-41 -36 -87.5 -53t-105.5 -17q-91 0 -139.5 44t-48.5 125q0 44 14 73.5t42.5 48.5t72 30t102.5 19q38 5 65.5 7.5t45.5 7.5
t26.5 14.5t8.5 27.5q0 44 -76 44q-65 0 -71 -53h-206q3 181 284 181q73 0 126.5 -13.5t80.5 -31.5q21 -14 34 -29t20.5 -33t10.5 -39t3 -48v-296q0 -30 23 -45v-15h-212zM519 753q-14 -63 -39.5 -93.5t-67.5 -30.5q-9 0 -18 1t-19 4l-45 13q-23 6 -33 6q-31 0 -44 -37h-58
q14 61 39 90.5t66 29.5q15 0 44 -8l46 -13q12 -4 28 -4q32 0 43 42h58z" />
    <glyph glyph-name="adieresis" unicode="&#xe4;" horiz-adv-x="689" 
d="M416 237q-37 -14 -66.5 -21t-50.5 -14t-32 -17t-11 -29q0 -23 15.5 -35.5t44.5 -12.5q54 0 77.5 24.5t23.5 77.5v13.5t-1 13.5zM422 51q-41 -36 -87.5 -53t-105.5 -17q-91 0 -139.5 44t-48.5 125q0 44 14 73.5t42.5 48.5t72 30t102.5 19q38 5 65.5 7.5t45.5 7.5
t26.5 14.5t8.5 27.5q0 44 -76 44q-65 0 -71 -53h-206q3 181 284 181q73 0 126.5 -13.5t80.5 -31.5q21 -14 34 -29t20.5 -33t10.5 -39t3 -48v-296q0 -30 23 -45v-15h-212zM384 750h123v-132h-123v132zM207 750h122v-132h-122v132z" />
    <glyph glyph-name="aring" unicode="&#xe5;" horiz-adv-x="689" 
d="M422 51q-41 -36 -87.5 -53t-105.5 -17q-91 0 -139.5 44t-48.5 125q0 44 14 73.5t42.5 48.5t72 30t102.5 19q38 5 65.5 7.5t45.5 7.5t26.5 14.5t8.5 27.5q0 44 -76 44q-65 0 -71 -53h-206q3 181 284 181q73 0 126.5 -13.5t80.5 -31.5q21 -14 34 -29t20.5 -33t10.5 -39
t3 -48v-296q0 -30 23 -45v-15h-212zM416 237q-37 -14 -66.5 -21t-50.5 -14t-32 -17t-11 -29q0 -23 15.5 -35.5t44.5 -12.5q54 0 77.5 24.5t23.5 77.5v13.5t-1 13.5zM241 694q0 25 9.5 47t26 38.5t38.5 26t47 9.5t47 -9.5t38 -26t25.5 -38.5t9.5 -47t-9.5 -47t-25.5 -38
t-38 -25.5t-47 -9.5t-47 9.5t-38.5 25.5t-26 38t-9.5 47zM314 694q0 -20 14 -33.5t34 -13.5t34 13.5t14 33.5t-14 34.5t-34 14.5t-34 -14.5t-14 -34.5z" />
    <glyph glyph-name="ae" unicode="&#xe6;" horiz-adv-x="1021" 
d="M789 325q-2 50 -28 76t-74 26q-44 0 -69 -26t-28 -76h199zM416 237q-39 -15 -70.5 -22.5t-53.5 -14.5t-34 -17.5t-12 -29.5q0 -23 16.5 -36.5t47.5 -13.5q57 0 82 25.5t25 80.5v13.5t-1 14.5zM491 62q-55 -40 -120.5 -60.5t-141.5 -20.5q-91 0 -139.5 44t-48.5 125
q0 44 14 73.5t42.5 48.5t71.5 30t102 19q39 5 66.5 7.5t45.5 7.5t26.5 14.5t8.5 27.5q0 25 -20.5 34.5t-62.5 9.5q-35 0 -52 -11.5t-20 -40.5l-198 -1v1q0 85 70 132.5t202 47.5q64 0 109.5 -15.5t76.5 -51.5q32 32 75 49.5t103 17.5q67 0 120.5 -22t91 -63.5t57.5 -102
t20 -137.5v-6h-399q3 -104 98 -104q39 0 61 9.5t28 32.5h194q-17 -81 -90 -128.5t-187 -47.5q-70 0 -121.5 21t-82.5 60z" />
    <glyph glyph-name="ccedilla" unicode="&#xe7;" horiz-adv-x="652" 
d="M622 207q-3 -52 -24.5 -94t-58.5 -71t-89 -45t-116 -16q-71 0 -127.5 20t-96 57t-60.5 90t-21 118q0 66 21 118.5t60 89.5t95 56.5t127 19.5q65 0 117.5 -16t89.5 -45t58 -69.5t23 -90.5h-211q-6 74 -78 74q-47 0 -68 -33.5t-21 -103.5q0 -71 20.5 -104.5t66.5 -33.5
q74 0 82 79h211zM209 -147q44 -12 77 -17t55 -5q42 0 42 35q0 31 -58 31h-12.5t-14.5 -1v104h56v-41h9q55 0 83.5 -24.5t28.5 -69.5q0 -48 -32 -75t-92 -27t-142 22v68z" />
    <glyph glyph-name="egrave" unicode="&#xe8;" horiz-adv-x="666" 
d="M428 325q-6 99 -96 99q-42 0 -66 -25.5t-26 -73.5h188zM619 157q-22 -87 -95.5 -131.5t-197.5 -44.5q-69 0 -124 20t-93.5 56.5t-59 88.5t-20.5 115q0 67 21 120.5t60.5 91t96 57.5t127.5 20q70 0 126 -21.5t95 -62.5t60 -100t21 -134v-13h-396q2 -51 27 -78.5t71 -27.5
q63 0 79 44h202zM328 775l94 -181h-75l-159 181h140z" />
    <glyph glyph-name="eacute" unicode="&#xe9;" horiz-adv-x="666" 
d="M428 325q-6 99 -96 99q-42 0 -66 -25.5t-26 -73.5h188zM619 157q-22 -87 -95.5 -131.5t-197.5 -44.5q-69 0 -124 20t-93.5 56.5t-59 88.5t-20.5 115q0 67 21 120.5t60.5 91t96 57.5t127.5 20q70 0 126 -21.5t95 -62.5t60 -100t21 -134v-13h-396q2 -51 27 -78.5t71 -27.5
q63 0 79 44h202zM327 594h-75l94 181h140z" />
    <glyph glyph-name="ecircumflex" unicode="&#xea;" horiz-adv-x="666" 
d="M428 325q-6 99 -96 99q-42 0 -66 -25.5t-26 -73.5h188zM619 157q-22 -87 -95.5 -131.5t-197.5 -44.5q-69 0 -124 20t-93.5 56.5t-59 88.5t-20.5 115q0 67 21 120.5t60.5 91t96 57.5t127.5 20q70 0 126 -21.5t95 -62.5t60 -100t21 -134v-13h-396q2 -51 27 -78.5t71 -27.5
q63 0 79 44h202zM274 775h125l94 -181h-75l-81 97l-82 -97h-75z" />
    <glyph glyph-name="edieresis" unicode="&#xeb;" horiz-adv-x="666" 
d="M428 325q-6 99 -96 99q-42 0 -66 -25.5t-26 -73.5h188zM619 157q-22 -87 -95.5 -131.5t-197.5 -44.5q-69 0 -124 20t-93.5 56.5t-59 88.5t-20.5 115q0 67 21 120.5t60.5 91t96 57.5t127.5 20q70 0 126 -21.5t95 -62.5t60 -100t21 -134v-13h-396q2 -51 27 -78.5t71 -27.5
q63 0 79 44h202zM364 750h123v-132h-123v132zM187 750h122v-132h-122v132z" />
    <glyph glyph-name="igrave" unicode="&#xec;" horiz-adv-x="338" 
d="M62 531h213v-531h-213v531zM161 775l94 -181h-75l-159 181h140z" />
    <glyph glyph-name="iacute" unicode="&#xed;" horiz-adv-x="338" 
d="M62 531h213v-531h-213v531zM160 594h-75l94 181h140z" />
    <glyph glyph-name="icircumflex" unicode="&#xee;" horiz-adv-x="338" 
d="M62 531h213v-531h-213v531zM107 775h125l94 -181h-75l-81 97l-82 -97h-75z" />
    <glyph glyph-name="idieresis" unicode="&#xef;" horiz-adv-x="338" 
d="M62 531h213v-531h-213v531zM197 750h123v-132h-123v132zM20 750h122v-132h-122v132z" />
    <glyph glyph-name="eth" unicode="&#xf0;" horiz-adv-x="658" 
d="M242 251q0 -63 19.5 -93t67.5 -30t68 30t20 93t-20 93t-68 30t-67.5 -30t-19.5 -93zM377 469q-17 24 -43 45.5t-58 46.5l-162 -81l-30 66l118 60q-21 11 -36.5 18.5t-26.5 11.5l56 101q31 -9 70.5 -25.5t89.5 -39.5l137 69l33 -63l-101 -52q105 -74 155.5 -163.5
t50.5 -203.5q0 -134 -78.5 -206t-222.5 -72q-70 0 -125.5 18.5t-94.5 53t-59.5 83t-20.5 109.5q0 56 18 101.5t51 77t80.5 48.5t106.5 17q55 0 92 -20z" />
    <glyph glyph-name="ntilde" unicode="&#xf1;" horiz-adv-x="683" 
d="M57 531h192v-78q73 92 186 92q98 0 151 -64q31 -37 37.5 -86.5t6.5 -118.5v-276h-211v275q0 55 -14 80.5t-58 25.5q-79 0 -79 -107v-274h-211v531zM504 753q-14 -63 -39.5 -93.5t-67.5 -30.5q-9 0 -18 1t-19 4l-45 13q-23 6 -33 6q-31 0 -44 -37h-58q14 61 39 90.5
t66 29.5q15 0 44 -8l46 -13q12 -4 28 -4q32 0 43 42h58z" />
    <glyph glyph-name="ograve" unicode="&#xf2;" horiz-adv-x="658" 
d="M242 266q0 -71 19.5 -104.5t67.5 -33.5t68 33.5t20 104.5t-20 104t-68 33t-67.5 -33t-19.5 -104zM29 266q0 66 20.5 118.5t59.5 89.5t94.5 56.5t125.5 19.5t125.5 -19.5t94.5 -56.5t59.5 -89.5t20.5 -118.5t-20.5 -119t-59.5 -89.5t-94.5 -56.5t-125.5 -20t-125.5 20
t-94.5 56.5t-59.5 89.5t-20.5 119zM320 775l94 -181h-75l-159 181h140z" />
    <glyph glyph-name="oacute" unicode="&#xf3;" horiz-adv-x="658" 
d="M242 266q0 -71 19.5 -104.5t67.5 -33.5t68 33.5t20 104.5t-20 104t-68 33t-67.5 -33t-19.5 -104zM29 266q0 66 20.5 118.5t59.5 89.5t94.5 56.5t125.5 19.5t125.5 -19.5t94.5 -56.5t59.5 -89.5t20.5 -118.5t-20.5 -119t-59.5 -89.5t-94.5 -56.5t-125.5 -20t-125.5 20
t-94.5 56.5t-59.5 89.5t-20.5 119zM319 594h-75l94 181h140z" />
    <glyph glyph-name="ocircumflex" unicode="&#xf4;" horiz-adv-x="658" 
d="M242 266q0 -71 19.5 -104.5t67.5 -33.5t68 33.5t20 104.5t-20 104t-68 33t-67.5 -33t-19.5 -104zM29 266q0 66 20.5 118.5t59.5 89.5t94.5 56.5t125.5 19.5t125.5 -19.5t94.5 -56.5t59.5 -89.5t20.5 -118.5t-20.5 -119t-59.5 -89.5t-94.5 -56.5t-125.5 -20t-125.5 20
t-94.5 56.5t-59.5 89.5t-20.5 119zM266 775h125l94 -181h-75l-81 97l-82 -97h-75z" />
    <glyph glyph-name="otilde" unicode="&#xf5;" horiz-adv-x="658" 
d="M242 266q0 -71 19.5 -104.5t67.5 -33.5t68 33.5t20 104.5t-20 104t-68 33t-67.5 -33t-19.5 -104zM29 266q0 66 20.5 118.5t59.5 89.5t94.5 56.5t125.5 19.5t125.5 -19.5t94.5 -56.5t59.5 -89.5t20.5 -118.5t-20.5 -119t-59.5 -89.5t-94.5 -56.5t-125.5 -20t-125.5 20
t-94.5 56.5t-59.5 89.5t-20.5 119zM491 753q-14 -63 -39.5 -93.5t-67.5 -30.5q-9 0 -18 1t-19 4l-45 13q-23 6 -33 6q-31 0 -44 -37h-58q14 61 39 90.5t66 29.5q15 0 44 -8l46 -13q12 -4 28 -4q32 0 43 42h58z" />
    <glyph glyph-name="odieresis" unicode="&#xf6;" horiz-adv-x="658" 
d="M242 266q0 -71 19.5 -104.5t67.5 -33.5t68 33.5t20 104.5t-20 104t-68 33t-67.5 -33t-19.5 -104zM29 266q0 66 20.5 118.5t59.5 89.5t94.5 56.5t125.5 19.5t125.5 -19.5t94.5 -56.5t59.5 -89.5t20.5 -118.5t-20.5 -119t-59.5 -89.5t-94.5 -56.5t-125.5 -20t-125.5 20
t-94.5 56.5t-59.5 89.5t-20.5 119zM356 750h123v-132h-123v132zM179 750h122v-132h-122v132z" />
    <glyph glyph-name="divide" unicode="&#xf7;" horiz-adv-x="833" 
d="M417 181q18 0 34 -7t28.5 -19t19.5 -28.5t7 -34.5t-7 -34t-19 -28t-28.5 -19.5t-35.5 -7.5q-38 0 -63.5 26t-25.5 63q0 19 7 35.5t19.5 28.5t29 18.5t34.5 6.5zM709 232h-585v133h585v-133zM417 594q18 0 34 -7t28.5 -19.5t19.5 -29t7 -34.5t-7 -34t-19 -28t-28.5 -19.5
t-35.5 -7.5q-38 0 -63.5 26t-25.5 63q0 19 7 35.5t19.5 28.5t29 19t34.5 7z" />
    <glyph glyph-name="oslash" unicode="&#xf8;" horiz-adv-x="658" 
d="M32 19l60 58q-33 40 -48.5 85t-15.5 101q0 66 20.5 119.5t59.5 90.5t95 57t126 20q60 0 109 -14.5t85 -41.5l52 57l44 -39l-54 -53q35 -40 50 -85t15 -102q0 -68 -20.5 -122t-59.5 -91.5t-95 -57.5t-126 -20q-124 0 -198 59l-62 -60zM402 378q-23 33 -73 33
q-99 0 -99 -136q0 -13 1 -28t2 -32zM252 156q14 -20 32.5 -28.5t46.5 -8.5q51 0 74 36.5t23 112.5q0 27 -5 55z" />
    <glyph glyph-name="ugrave" unicode="&#xf9;" horiz-adv-x="683" 
d="M626 0h-193v78q-73 -92 -186 -92q-98 0 -151 64q-15 18 -24 39.5t-13 47t-5 55t-1 64.5v275h211v-274q0 -55 14 -81t58 -26q79 0 79 108v273h211v-531zM333 775l94 -181h-75l-159 181h140z" />
    <glyph glyph-name="uacute" unicode="&#xfa;" horiz-adv-x="683" 
d="M626 0h-193v78q-73 -92 -186 -92q-98 0 -151 64q-15 18 -24 39.5t-13 47t-5 55t-1 64.5v275h211v-274q0 -55 14 -81t58 -26q79 0 79 108v273h211v-531zM332 594h-75l94 181h140z" />
    <glyph glyph-name="ucircumflex" unicode="&#xfb;" horiz-adv-x="683" 
d="M626 0h-193v78q-73 -92 -186 -92q-98 0 -151 64q-15 18 -24 39.5t-13 47t-5 55t-1 64.5v275h211v-274q0 -55 14 -81t58 -26q79 0 79 108v273h211v-531zM279 775h125l94 -181h-75l-81 97l-82 -97h-75z" />
    <glyph glyph-name="udieresis" unicode="&#xfc;" horiz-adv-x="683" 
d="M626 0h-193v78q-73 -92 -186 -92q-98 0 -151 64q-15 18 -24 39.5t-13 47t-5 55t-1 64.5v275h211v-274q0 -55 14 -81t58 -26q79 0 79 108v273h211v-531zM369 750h123v-132h-123v132zM192 750h122v-132h-122v132z" />
    <glyph glyph-name="yacute" unicode="&#xfd;" horiz-adv-x="587" 
d="M65 -52h60q29 0 43.5 10t14.5 35q0 21 -11 52l-178 486h214l93 -322l90 322h199l-172 -528q-20 -62 -37.5 -105.5t-41.5 -66.5q-31 -31 -71 -37.5t-96 -6.5q-19 0 -45.5 1t-61.5 3v157zM284 594h-75l94 181h140z" />
    <glyph glyph-name="thorn" unicode="&#xfe;" horiz-adv-x="677" 
d="M437 264q0 123 -85 123q-48 0 -68.5 -30t-20.5 -93q0 -120 87 -120t87 120zM58 719h205v-242q49 68 154 68q51 0 93 -20t73 -56.5t48 -88.5t17 -116q0 -65 -17 -117t-47 -88.5t-72 -56.5t-92 -20q-53 0 -90.5 15.5t-66.5 52.5v-263h-205v932z" />
    <glyph glyph-name="ydieresis" unicode="&#xff;" horiz-adv-x="587" 
d="M65 -52h60q29 0 43.5 10t14.5 35q0 21 -11 52l-178 486h214l93 -322l90 322h199l-172 -528q-20 -62 -37.5 -105.5t-41.5 -66.5q-31 -31 -71 -37.5t-96 -6.5q-19 0 -45.5 1t-61.5 3v157zM321 750h123v-132h-123v132zM144 750h122v-132h-122v132z" />
    <glyph glyph-name="dotlessi" unicode="&#x131;" horiz-adv-x="338" 
d="M62 531h213v-531h-213v531z" />
    <glyph glyph-name="Lslash" unicode="&#x141;" horiz-adv-x="644" 
d="M73 259l-58 -39l-63 108l121 80v311h231v-184l126 82l65 -107l-191 -124v-195h313v-191h-544v259z" />
    <glyph glyph-name="lslash" unicode="&#x142;" horiz-adv-x="347" 
d="M67 255l-43 -28l-57 88l100 65v339h213v-229l48 31l56 -87l-104 -68v-366h-213v255z" />
    <glyph glyph-name="OE" unicode="&#x152;" horiz-adv-x="1166" 
d="M270 359q0 -103 33 -152.5t105 -49.5t104.5 49.5t32.5 152.5t-32.5 152.5t-104.5 49.5t-105 -49.5t-33 -152.5zM566 58q-66 -75 -188 -75q-73 0 -134.5 27t-106 76t-69.5 118.5t-25 154.5t25 155t69 119.5t105.5 76.5t135.5 27q115 0 188 -76v58h533v-172h-343v-96h290
v-165h-290v-111h358v-175h-548v58z" />
    <glyph glyph-name="oe" unicode="&#x153;" horiz-adv-x="1021" 
d="M788 325q-2 49 -28.5 75.5t-71.5 26.5q-42 0 -67 -26.5t-27 -75.5h194zM234 266q0 -72 20.5 -107t71.5 -35t71.5 35t20.5 107t-20.5 106.5t-71.5 34.5t-71.5 -34.5t-20.5 -106.5zM503 52q-40 -37 -84 -54t-100 -17q-66 0 -119.5 20t-92 57t-59 90t-20.5 118t20.5 117.5
t59 89.5t92 57t119.5 20q57 0 103.5 -17.5t84.5 -55.5q38 38 84 55.5t106 17.5q65 0 119 -21.5t92.5 -62t60 -99t21.5 -131.5v-17h-396q2 -51 26 -77.5t69 -26.5q37 0 58.5 9.5t29.5 32.5h196q-18 -82 -91 -129t-189 -47q-60 0 -106 16.5t-84 54.5z" />
    <glyph glyph-name="Scaron" unicode="&#x160;" horiz-adv-x="713" 
d="M259 224q9 -40 33.5 -56.5t72.5 -16.5q42 0 64.5 14.5t22.5 37.5q0 17 -8 27t-23.5 17t-39.5 13l-56 14q-75 20 -123.5 36.5t-71.5 32.5q-83 59 -83 166q0 52 20 94.5t59 72.5t95 46t128 16q140 0 219 -58.5t89 -167.5h-219q-10 63 -93 63q-73 0 -73 -49q0 -14 7 -23
t20.5 -16t33.5 -12t46 -12q67 -17 119 -31t87 -37q48 -32 70 -72t22 -96q0 -118 -82 -182.5t-240 -64.5q-146 0 -228 64.5t-93 179.5h225zM275 963l82 -98l81 98h75l-94 -181h-125l-94 181h75z" />
    <glyph glyph-name="scaron" unicode="&#x161;" horiz-adv-x="612" 
d="M236 167q0 -67 69 -67t69 44q0 14 -5.5 22.5t-17 14t-28 9.5t-38.5 9q-62 13 -107 26.5t-74.5 32.5t-44 47t-14.5 70q0 85 65.5 130t195.5 45q239 0 259 -167h-190q-2 23 -20 37.5t-47 14.5q-57 0 -57 -37q0 -14 6.5 -22t19 -13t31.5 -8.5t44 -9.5q59 -14 102.5 -27.5
t72 -33t42.5 -48t14 -71.5q0 -184 -281 -184q-258 0 -271 186h205zM224 775l82 -98l81 98h75l-94 -181h-125l-94 181h75z" />
    <glyph glyph-name="Ydieresis" unicode="&#x178;" horiz-adv-x="736" 
d="M256 266l-265 453h256l124 -245l125 245h249l-258 -453v-266h-231v266zM395 938h123v-132h-123v132zM218 938h122v-132h-122v132z" />
    <glyph glyph-name="Zcaron" unicode="&#x17d;" horiz-adv-x="705" 
d="M34 173l333 360h-322v186h606v-171l-337 -363h355v-185h-635v173zM271 963l82 -98l81 98h75l-94 -181h-125l-94 181h75z" />
    <glyph glyph-name="zcaron" unicode="&#x17e;" horiz-adv-x="535" 
d="M13 143l242 233h-221v155h470v-142l-236 -234h248v-155h-503v143zM186 775l82 -98l81 98h75l-94 -181h-125l-94 181h75z" />
    <glyph glyph-name="florin" unicode="&#x192;" horiz-adv-x="657" 
d="M42 -32q40 -9 57 -9q30 0 45.5 17t21.5 53l50 320h-101v112h120q10 71 26.5 122.5t42.5 84.5t63.5 49t88.5 16q66 0 128 -18l-23 -127q-18 4 -32 6.5t-26 2.5q-35 0 -47.5 -22.5t-20.5 -67.5l-8 -46h112v-112h-130l-37 -237q-12 -78 -29 -132.5t-43.5 -89.5t-66.5 -51
t-98 -16q-59 0 -119 19z" />
    <glyph glyph-name="circumflex" unicode="&#x2c6;" 
d="M187 775h125l94 -181h-75l-81 97l-82 -97h-75z" />
    <glyph glyph-name="caron" unicode="&#x2c7;" 
d="M168 775l82 -98l81 98h75l-94 -181h-125l-94 181h75z" />
    <glyph glyph-name="breve" unicode="&#x2d8;" 
d="M160 759q6 -68 90 -68q86 0 89 68h64q-6 -78 -42.5 -114.5t-110.5 -36.5q-144 0 -154 151h64z" />
    <glyph glyph-name="dotaccent" unicode="&#x2d9;" 
d="M187 753h127v-137h-127v137z" />
    <glyph glyph-name="ring" unicode="&#x2da;" 
d="M194 717q0 -23 16 -39.5t40 -16.5q23 0 39.5 16.5t16.5 39.5t-16.5 39.5t-39.5 16.5t-39.5 -16.5t-16.5 -39.5zM118 717q0 28 10 52t28 42t42 28t52 10t52 -10t42 -28t28.5 -42t10.5 -52t-10.5 -52t-28.5 -42t-42 -28.5t-52 -10.5t-52 10t-42 28t-28 42.5t-10 52.5z" />
    <glyph glyph-name="ogonek" unicode="&#x2db;" 
d="M309 0q-29 -26 -43.5 -49t-14.5 -47q0 -39 37 -39h50v-93h-36q-71 0 -105.5 20t-34.5 76q0 38 23 69.5t71 62.5h53z" />
    <glyph glyph-name="tilde" unicode="&#x2dc;" 
d="M412 753q-14 -63 -39.5 -93.5t-67.5 -30.5q-9 0 -18 1t-19 4l-45 13q-23 6 -33 6q-31 0 -44 -37h-58q14 61 39 90.5t66 29.5q15 0 44 -8l46 -13q12 -4 28 -4q32 0 43 42h58z" />
    <glyph glyph-name="hungarumlaut" unicode="&#x2dd;" 
d="M354 775h124l-142 -181h-58zM314 775l-123 -181h-54l57 181h120z" />
    <glyph glyph-name="endash" unicode="&#x2013;" 
d="M0 341h500v-145h-500v145z" />
    <glyph glyph-name="emdash" unicode="&#x2014;" horiz-adv-x="1000" 
d="M0 341h1000v-145h-1000v145z" />
    <glyph glyph-name="quoteleft" unicode="&#x2018;" horiz-adv-x="308" 
d="M59 548q0 78 48.5 127.5t141.5 61.5v-84q-45 -10 -64.5 -32t-19.5 -65h84v-192h-190v184z" />
    <glyph glyph-name="quoteright" unicode="&#x2019;" horiz-adv-x="308" 
d="M249 534q0 -78 -48.5 -127t-141.5 -61v84q45 10 64 32t19 65h-83v192h190v-185z" />
    <glyph glyph-name="quotesinglbase" unicode="&#x201a;" horiz-adv-x="308" 
d="M249 15q0 -78 -48.5 -127.5t-141.5 -61.5v84q45 10 64 32t19 65h-83v192h190v-184z" />
    <glyph glyph-name="quotedblleft" unicode="&#x201c;" horiz-adv-x="554" 
d="M59 550q0 78 48.5 127t141.5 61v-84q-45 -10 -64.5 -32t-19.5 -65h84v-192h-190v185zM305 550q0 78 48.5 127t141.5 61v-84q-45 -10 -64 -32t-19 -65h83v-192h-190v185z" />
    <glyph glyph-name="quotedblright" unicode="&#x201d;" horiz-adv-x="554" 
d="M495 534q0 -78 -48.5 -127t-141.5 -61v84q45 10 64.5 32t19.5 65h-84v192h190v-185zM249 534q0 -78 -48.5 -127t-141.5 -61v84q45 10 64 32t19 65h-83v192h190v-185z" />
    <glyph glyph-name="quotedblbase" unicode="&#x201e;" horiz-adv-x="554" 
d="M495 15q0 -78 -48.5 -127.5t-141.5 -61.5v84q45 10 64.5 32t19.5 65h-84v192h190v-184zM249 15q0 -78 -48.5 -127.5t-141.5 -61.5v84q45 10 64 32t19 65h-83v192h190v-184z" />
    <glyph glyph-name="dagger" unicode="&#x2020;" 
d="M165 390h-154v138h154v192h169v-192h153v-138h-153v-501h-169v501z" />
    <glyph glyph-name="daggerdbl" unicode="&#x2021;" 
d="M169 55h-149v135h149v230h-149v131h149v168h161v-168h149v-131h-149v-230h149v-135h-149v-165h-161v165z" />
    <glyph glyph-name="bullet" unicode="&#x2022;" horiz-adv-x="590" 
d="M150 372q0 30 11.5 56t31 45.5t46 31t56.5 11.5t56 -11.5t45.5 -31t31 -45.5t11.5 -56t-11.5 -56t-31 -46t-46 -31.5t-56.5 -11.5t-56.5 11.5t-46 31t-30.5 46t-11 56.5z" />
    <glyph glyph-name="ellipsis" unicode="&#x2026;" horiz-adv-x="1000" 
d="M727 216h212v-216h-212v216zM393 216h212v-216h-212v216zM60 216h212v-216h-212v216z" />
    <glyph glyph-name="perthousand" unicode="&#x2030;" horiz-adv-x="1501" 
d="M1178 197q0 -35 24 -58t59 -23t59 23.5t24 57.5q0 35 -24 59t-59 24t-59 -24t-24 -59zM1044 197q0 46 16.5 85.5t46 68.5t69 46t85.5 17q44 0 83.5 -17t69 -46.5t47 -69t17.5 -84.5t-17 -84.5t-46.5 -69t-69 -46.5t-84.5 -17q-46 0 -85.5 16.5t-69 46t-46 69t-16.5 85.5z
M696 197q0 -35 23.5 -59t58.5 -24t59 24.5t24 58.5q0 35 -24 59t-59 24t-58.5 -24t-23.5 -59zM562 197q0 46 16.5 85.5t45.5 68.5t68.5 46t85.5 17q44 0 83.5 -17t69 -46.5t47 -69t17.5 -84.5t-17 -84.5t-46.5 -69t-69 -46.5t-84.5 -17q-46 0 -85.5 16.5t-68.5 46t-45.5 69
t-16.5 85.5zM660 721h99l-401 -741h-99zM157 504q0 -35 24 -58.5t59 -23.5t58.5 24t23.5 58q0 35 -23.5 59t-58.5 24t-59 -24t-24 -59zM23 504q0 46 16.5 85.5t46 68.5t69 46t85.5 17q44 0 83.5 -17t69 -46.5t46.5 -69t17 -84.5t-17 -84t-46.5 -68.5t-68.5 -46.5t-84 -17
q-46 0 -85.5 16.5t-69 45.5t-46 68.5t-16.5 85.5z" />
    <glyph glyph-name="guilsinglleft" unicode="&#x2039;" horiz-adv-x="260" 
d="M32 191v149l186 121v-136l-93 -59l93 -60v-136z" />
    <glyph glyph-name="guilsinglright" unicode="&#x203a;" horiz-adv-x="260" 
d="M227 339v-149l-186 -121v135l93 60l-93 60v135z" />
    <glyph glyph-name="fraction" unicode="&#x2044;" horiz-adv-x="167" 
d="M234 721h99l-401 -741h-99z" />
    <glyph glyph-name="fraction" unicode="&#x2215;" horiz-adv-x="167" 
d="M234 721h99l-401 -741h-99z" />
    <glyph glyph-name="trademark" unicode="&#x2122;" horiz-adv-x="833" 
d="M558 587l48 130h125v-273h-89v179l-67 -179h-34l-67 179v-179h-89v273h125zM337 643h-79v-199h-99v199h-79v74h257v-74z" />
    <glyph glyph-name="minus" unicode="&#x2212;" horiz-adv-x="833" 
d="M709 231h-585v135h585v-135z" />
  </font>
</defs>
</svg>
